<svg width="161" height="20" viewBox="0 0 161 20" fill="none" xmlns="http://www.w3.org/2000/svg">
<path d="M32.272 8.232H33.952C34.24 8.232 34.5067 8.21067 34.752 8.168C35.008 8.12533 35.2267 8.05067 35.408 7.944C35.6 7.83733 35.7493 7.69867 35.856 7.528C35.9627 7.35733 36.016 7.144 36.016 6.888C36.016 6.52533 35.872 6.25333 35.584 6.072C35.296 5.89067 34.8907 5.8 34.368 5.8C33.7813 5.8 33.2693 5.86933 32.832 6.008C32.3947 6.136 31.9787 6.312 31.584 6.536L30.784 4.568C31.2107 4.30133 31.7227 4.088 32.32 3.928C32.928 3.75733 33.616 3.672 34.384 3.672C34.9813 3.672 35.536 3.74133 36.048 3.88C36.56 4.008 37.0027 4.20533 37.376 4.472C37.7493 4.728 38.0373 5.05867 38.24 5.464C38.4533 5.85867 38.56 6.32267 38.56 6.856C38.56 7.26133 38.448 7.66667 38.224 8.072C38.0107 8.46667 37.68 8.80267 37.232 9.08C37.4773 9.208 37.7067 9.35733 37.92 9.528C38.144 9.69867 38.336 9.896 38.496 10.12C38.6667 10.344 38.8 10.6 38.896 10.888C38.992 11.1653 39.04 11.48 39.04 11.832C39.04 13.016 38.6187 13.88 37.776 14.424C36.944 14.9573 35.7813 15.224 34.288 15.224C33.9147 15.224 33.5413 15.1973 33.168 15.144C32.8053 15.0907 32.4533 15.0267 32.112 14.952C31.7813 14.8667 31.4667 14.7707 31.168 14.664C30.88 14.5573 30.624 14.4453 30.4 14.328L31.136 12.376C31.2853 12.44 31.4667 12.5147 31.68 12.6C31.904 12.6747 32.1493 12.7493 32.416 12.824C32.6827 12.8987 32.96 12.9627 33.248 13.016C33.536 13.0693 33.824 13.096 34.112 13.096C34.816 13.096 35.3813 12.9947 35.808 12.792C36.2453 12.5893 36.464 12.2373 36.464 11.736C36.464 11.4267 36.3947 11.176 36.256 10.984C36.1173 10.792 35.9253 10.648 35.68 10.552C35.4453 10.4453 35.1627 10.376 34.832 10.344C34.512 10.3013 34.16 10.28 33.776 10.28H32.272V8.232ZM44.1016 13.336C44.3363 13.336 44.5603 13.3307 44.7736 13.32C44.987 13.3093 45.1576 13.2933 45.2856 13.272V11.464C45.1896 11.4427 45.0456 11.4213 44.8536 11.4C44.6616 11.3787 44.4856 11.368 44.3256 11.368C44.1016 11.368 43.8883 11.384 43.6856 11.416C43.4936 11.4373 43.323 11.4853 43.1736 11.56C43.0243 11.6347 42.907 11.736 42.8216 11.864C42.7363 11.992 42.6936 12.152 42.6936 12.344C42.6936 12.7173 42.8163 12.9787 43.0616 13.128C43.3176 13.2667 43.6643 13.336 44.1016 13.336ZM43.9096 6.36C44.6136 6.36 45.2003 6.44 45.6696 6.6C46.139 6.76 46.5123 6.98933 46.7896 7.288C47.0776 7.58667 47.2803 7.94933 47.3976 8.376C47.515 8.80267 47.5736 9.27733 47.5736 9.8V14.76C47.2323 14.8347 46.7576 14.92 46.1496 15.016C45.5416 15.1227 44.8056 15.176 43.9416 15.176C43.3976 15.176 42.9016 15.128 42.4536 15.032C42.0163 14.936 41.6376 14.7813 41.3176 14.568C40.9976 14.344 40.7523 14.056 40.5816 13.704C40.411 13.352 40.3256 12.92 40.3256 12.408C40.3256 11.9173 40.4216 11.5013 40.6136 11.16C40.8163 10.8187 41.083 10.5467 41.4136 10.344C41.7443 10.1413 42.123 9.99733 42.5496 9.912C42.9763 9.816 43.419 9.768 43.8776 9.768C44.187 9.768 44.459 9.784 44.6936 9.816C44.939 9.83733 45.1363 9.86933 45.2856 9.912V9.688C45.2856 9.28267 45.163 8.95733 44.9176 8.712C44.6723 8.46667 44.2456 8.344 43.6376 8.344C43.2323 8.344 42.8323 8.376 42.4376 8.44C42.043 8.49333 41.7016 8.57333 41.4136 8.68L41.1096 6.76C41.2483 6.71733 41.419 6.67467 41.6216 6.632C41.835 6.57867 42.0643 6.536 42.3096 6.504C42.555 6.46133 42.811 6.42933 43.0776 6.408C43.355 6.376 43.6323 6.36 43.9096 6.36ZM52.1134 9.528C52.348 9.304 52.5934 9.05867 52.8494 8.792C53.116 8.52533 53.372 8.264 53.6174 8.008C53.8627 7.74133 54.0974 7.48533 54.3214 7.24C54.5454 6.99467 54.7427 6.776 54.9134 6.584H57.8094C57.596 6.808 57.3294 7.08533 57.0094 7.416C56.7 7.74667 56.3694 8.09333 56.0174 8.456C55.6654 8.808 55.308 9.16 54.9454 9.512C54.5934 9.864 54.2574 10.1787 53.9374 10.456C54.2574 10.7013 54.5987 11.0053 54.9614 11.368C55.324 11.7307 55.676 12.12 56.0174 12.536C56.3694 12.952 56.7 13.3733 57.0094 13.8C57.3294 14.2267 57.6014 14.6267 57.8254 15H55.1054C54.9134 14.712 54.6947 14.4133 54.4494 14.104C54.204 13.784 53.948 13.4747 53.6814 13.176C53.4147 12.8667 53.1427 12.5787 52.8654 12.312C52.5987 12.0453 52.348 11.816 52.1134 11.624V15H49.7294V6.584H52.1134V9.528ZM62.1641 13.336C62.3988 13.336 62.6228 13.3307 62.8361 13.32C63.0495 13.3093 63.2201 13.2933 63.3481 13.272V11.464C63.2521 11.4427 63.1081 11.4213 62.9161 11.4C62.7241 11.3787 62.5481 11.368 62.3881 11.368C62.1641 11.368 61.9508 11.384 61.7481 11.416C61.5561 11.4373 61.3855 11.4853 61.2361 11.56C61.0868 11.6347 60.9695 11.736 60.8841 11.864C60.7988 11.992 60.7561 12.152 60.7561 12.344C60.7561 12.7173 60.8788 12.9787 61.1241 13.128C61.3801 13.2667 61.7268 13.336 62.1641 13.336ZM61.9721 6.36C62.6761 6.36 63.2628 6.44 63.7321 6.6C64.2015 6.76 64.5748 6.98933 64.8521 7.288C65.1401 7.58667 65.3428 7.94933 65.4601 8.376C65.5775 8.80267 65.6361 9.27733 65.6361 9.8V14.76C65.2948 14.8347 64.8201 14.92 64.2121 15.016C63.6041 15.1227 62.8681 15.176 62.0041 15.176C61.4601 15.176 60.9641 15.128 60.5161 15.032C60.0788 14.936 59.7001 14.7813 59.3801 14.568C59.0601 14.344 58.8148 14.056 58.6441 13.704C58.4735 13.352 58.3881 12.92 58.3881 12.408C58.3881 11.9173 58.4841 11.5013 58.6761 11.16C58.8788 10.8187 59.1455 10.5467 59.4761 10.344C59.8068 10.1413 60.1855 9.99733 60.6121 9.912C61.0388 9.816 61.4815 9.768 61.9401 9.768C62.2495 9.768 62.5215 9.784 62.7561 9.816C63.0015 9.83733 63.1988 9.86933 63.3481 9.912V9.688C63.3481 9.28267 63.2255 8.95733 62.9801 8.712C62.7348 8.46667 62.3081 8.344 61.7001 8.344C61.2948 8.344 60.8948 8.376 60.5001 8.44C60.1055 8.49333 59.7641 8.57333 59.4761 8.68L59.1721 6.76C59.3108 6.71733 59.4815 6.67467 59.6841 6.632C59.8975 6.57867 60.1268 6.536 60.3721 6.504C60.6175 6.46133 60.8735 6.42933 61.1401 6.408C61.4175 6.376 61.6948 6.36 61.9721 6.36ZM67.3919 6.856C67.7652 6.71733 68.1972 6.60533 68.6879 6.52C69.1785 6.43467 69.7119 6.392 70.2879 6.392C70.7252 6.392 71.1519 6.43467 71.5679 6.52C71.9839 6.59467 72.3519 6.728 72.6719 6.92C73.0025 7.10133 73.2639 7.34667 73.4559 7.656C73.6585 7.95467 73.7599 8.33333 73.7599 8.792C73.7599 9.208 73.6639 9.56533 73.4719 9.864C73.2799 10.152 73.0079 10.392 72.6559 10.584C73.1252 10.7867 73.4719 11.0533 73.6959 11.384C73.9199 11.7147 74.0319 12.136 74.0319 12.648C74.0319 13.128 73.9305 13.5333 73.7279 13.864C73.5252 14.184 73.2532 14.4453 72.9119 14.648C72.5705 14.8507 72.1812 14.9947 71.7439 15.08C71.3065 15.176 70.8532 15.224 70.3839 15.224C70.1065 15.224 69.8185 15.208 69.5199 15.176C69.2212 15.1547 68.9279 15.1173 68.6399 15.064C68.3625 15.0213 68.0959 14.9627 67.8399 14.888C67.5839 14.8133 67.3545 14.7333 67.1519 14.648L67.5839 12.792C67.8079 12.8773 68.1492 12.9787 68.6079 13.096C69.0772 13.2133 69.6052 13.272 70.1919 13.272C71.1519 13.272 71.6319 13.0053 71.6319 12.472C71.6319 12.2907 71.5945 12.1467 71.5199 12.04C71.4452 11.9227 71.3439 11.832 71.2159 11.768C71.0985 11.704 70.9599 11.6613 70.7999 11.64C70.6399 11.6187 70.4799 11.608 70.3199 11.608H68.4479V9.912H70.3359C70.7199 9.912 70.9865 9.83733 71.1359 9.688C71.2959 9.528 71.3759 9.34667 71.3759 9.144C71.3759 8.94133 71.2852 8.76 71.1039 8.6C70.9332 8.42933 70.6132 8.344 70.1439 8.344C69.6745 8.344 69.2319 8.38667 68.8159 8.472C68.3999 8.55733 68.0639 8.63733 67.8079 8.712L67.3919 6.856ZM78.9298 13.336C79.1644 13.336 79.3884 13.3307 79.6018 13.32C79.8151 13.3093 79.9858 13.2933 80.1138 13.272V11.464C80.0178 11.4427 79.8738 11.4213 79.6818 11.4C79.4898 11.3787 79.3138 11.368 79.1538 11.368C78.9298 11.368 78.7164 11.384 78.5138 11.416C78.3218 11.4373 78.1511 11.4853 78.0018 11.56C77.8524 11.6347 77.7351 11.736 77.6498 11.864C77.5644 11.992 77.5218 12.152 77.5218 12.344C77.5218 12.7173 77.6444 12.9787 77.8898 13.128C78.1458 13.2667 78.4924 13.336 78.9298 13.336ZM78.7378 6.36C79.4418 6.36 80.0284 6.44 80.4978 6.6C80.9671 6.76 81.3404 6.98933 81.6178 7.288C81.9058 7.58667 82.1084 7.94933 82.2258 8.376C82.3431 8.80267 82.4018 9.27733 82.4018 9.8V14.76C82.0604 14.8347 81.5858 14.92 80.9778 15.016C80.3698 15.1227 79.6338 15.176 78.7698 15.176C78.2258 15.176 77.7298 15.128 77.2818 15.032C76.8444 14.936 76.4658 14.7813 76.1458 14.568C75.8258 14.344 75.5804 14.056 75.4098 13.704C75.2391 13.352 75.1538 12.92 75.1538 12.408C75.1538 11.9173 75.2498 11.5013 75.4418 11.16C75.6444 10.8187 75.9111 10.5467 76.2418 10.344C76.5724 10.1413 76.9511 9.99733 77.3778 9.912C77.8044 9.816 78.2471 9.768 78.7057 9.768C79.0151 9.768 79.2871 9.784 79.5218 9.816C79.7671 9.83733 79.9644 9.86933 80.1138 9.912V9.688C80.1138 9.28267 79.9911 8.95733 79.7458 8.712C79.5004 8.46667 79.0738 8.344 78.4658 8.344C78.0604 8.344 77.6604 8.376 77.2658 8.44C76.8711 8.49333 76.5298 8.57333 76.2418 8.68L75.9378 6.76C76.0764 6.71733 76.2471 6.67467 76.4498 6.632C76.6631 6.57867 76.8924 6.536 77.1378 6.504C77.3831 6.46133 77.6391 6.42933 77.9058 6.408C78.1831 6.376 78.4604 6.36 78.7378 6.36ZM91.5175 8.536H88.8295V15H86.4455V8.536H83.7575V6.584H91.5175V8.536ZM96.5318 13.336C96.9691 13.336 97.3104 13.256 97.5558 13.096C97.8118 12.9253 97.9398 12.6533 97.9398 12.28C97.9398 12.088 97.8971 11.928 97.8118 11.8C97.7264 11.6613 97.6091 11.5547 97.4598 11.48C97.3104 11.3947 97.1344 11.336 96.9318 11.304C96.7398 11.272 96.5318 11.256 96.3078 11.256C96.1478 11.256 95.9718 11.2667 95.7798 11.288C95.5878 11.3093 95.4438 11.3307 95.3478 11.352V13.272C95.4758 13.2933 95.6464 13.3093 95.8598 13.32C96.0731 13.3307 96.2971 13.336 96.5318 13.336ZM95.3478 9.576C95.4971 9.53333 95.6891 9.50133 95.9238 9.48C96.1691 9.448 96.4464 9.432 96.7558 9.432C97.2571 9.432 97.7211 9.49067 98.1478 9.608C98.5851 9.72533 98.9638 9.90667 99.2838 10.152C99.6038 10.3867 99.8544 10.6907 100.036 11.064C100.217 11.4267 100.308 11.8533 100.308 12.344C100.308 12.8347 100.222 13.2613 100.052 13.624C99.8811 13.976 99.6358 14.2693 99.3158 14.504C98.9958 14.728 98.6118 14.8933 98.1638 15C97.7264 15.1173 97.2358 15.176 96.6918 15.176C95.9878 15.176 95.3424 15.1387 94.7558 15.064C94.1691 15 93.5718 14.8933 92.9638 14.744V6.584H95.3478V9.576ZM105.439 6.856C105.812 6.71733 106.244 6.60533 106.735 6.52C107.225 6.43467 107.759 6.392 108.335 6.392C108.772 6.392 109.199 6.43467 109.615 6.52C110.031 6.59467 110.399 6.728 110.719 6.92C111.049 7.10133 111.311 7.34667 111.503 7.656C111.705 7.95467 111.807 8.33333 111.807 8.792C111.807 9.208 111.711 9.56533 111.519 9.864C111.327 10.152 111.055 10.392 110.703 10.584C111.172 10.7867 111.519 11.0533 111.743 11.384C111.967 11.7147 112.079 12.136 112.079 12.648C112.079 13.128 111.977 13.5333 111.775 13.864C111.572 14.184 111.3 14.4453 110.959 14.648C110.617 14.8507 110.228 14.9947 109.791 15.08C109.353 15.176 108.9 15.224 108.431 15.224C108.153 15.224 107.865 15.208 107.567 15.176C107.268 15.1547 106.975 15.1173 106.687 15.064C106.409 15.0213 106.143 14.9627 105.887 14.888C105.631 14.8133 105.401 14.7333 105.199 14.648L105.631 12.792C105.855 12.8773 106.196 12.9787 106.655 13.096C107.124 13.2133 107.652 13.272 108.239 13.272C109.199 13.272 109.679 13.0053 109.679 12.472C109.679 12.2907 109.641 12.1467 109.567 12.04C109.492 11.9227 109.391 11.832 109.263 11.768C109.145 11.704 109.007 11.6613 108.847 11.64C108.687 11.6187 108.527 11.608 108.367 11.608H106.495V9.912H108.383C108.767 9.912 109.033 9.83733 109.183 9.688C109.343 9.528 109.423 9.34667 109.423 9.144C109.423 8.94133 109.332 8.76 109.151 8.6C108.98 8.42933 108.66 8.344 108.191 8.344C107.721 8.344 107.279 8.38667 106.863 8.472C106.447 8.55733 106.111 8.63733 105.855 8.712L105.439 6.856ZM116.145 13.24C116.294 13.2613 116.491 13.2827 116.737 13.304C116.993 13.3147 117.227 13.32 117.441 13.32C117.974 13.32 118.39 13.256 118.689 13.128C118.987 12.9893 119.137 12.744 119.137 12.392C119.137 12.0507 118.998 11.816 118.721 11.688C118.454 11.5493 118.059 11.48 117.537 11.48H116.145V13.24ZM117.489 9.88C117.883 9.88 118.203 9.832 118.449 9.736C118.694 9.62933 118.817 9.40533 118.817 9.064C118.817 8.744 118.678 8.52533 118.401 8.408C118.123 8.29067 117.761 8.232 117.313 8.232C117.163 8.232 116.966 8.24267 116.721 8.264C116.486 8.27467 116.294 8.29067 116.145 8.312V9.88H117.489ZM117.409 15.16C117.11 15.16 116.79 15.1493 116.449 15.128C116.107 15.1067 115.771 15.0747 115.441 15.032C115.11 15 114.795 14.9627 114.497 14.92C114.209 14.8667 113.963 14.8187 113.761 14.776V6.712C113.963 6.66933 114.209 6.632 114.497 6.6C114.795 6.55733 115.11 6.52 115.441 6.488C115.771 6.456 116.107 6.43467 116.449 6.424C116.79 6.40267 117.11 6.392 117.409 6.392C118.102 6.392 118.683 6.46133 119.153 6.6C119.633 6.73867 120.017 6.92 120.305 7.144C120.603 7.368 120.817 7.61867 120.945 7.896C121.073 8.17333 121.137 8.45067 121.137 8.728C121.137 9.10133 121.046 9.44267 120.865 9.752C120.683 10.0613 120.454 10.2853 120.177 10.424C120.326 10.488 120.475 10.5787 120.625 10.696C120.785 10.8133 120.929 10.9573 121.057 11.128C121.185 11.288 121.286 11.4853 121.361 11.72C121.446 11.944 121.489 12.2053 121.489 12.504C121.489 12.8453 121.419 13.176 121.281 13.496C121.153 13.816 120.929 14.0987 120.609 14.344C120.289 14.5893 119.867 14.7867 119.345 14.936C118.822 15.0853 118.177 15.16 117.409 15.16ZM131.195 10.776C131.195 11.4373 131.099 12.0453 130.907 12.6C130.715 13.144 130.438 13.6133 130.075 14.008C129.712 14.392 129.275 14.6907 128.763 14.904C128.262 15.1173 127.696 15.224 127.067 15.224C126.448 15.224 125.883 15.1173 125.371 14.904C124.87 14.6907 124.438 14.392 124.075 14.008C123.712 13.6133 123.43 13.144 123.227 12.6C123.024 12.0453 122.923 11.4373 122.923 10.776C122.923 10.1147 123.024 9.512 123.227 8.968C123.44 8.424 123.728 7.96 124.091 7.576C124.464 7.192 124.902 6.89333 125.403 6.68C125.915 6.46667 126.47 6.36 127.067 6.36C127.675 6.36 128.23 6.46667 128.731 6.68C129.243 6.89333 129.68 7.192 130.043 7.576C130.406 7.96 130.688 8.424 130.891 8.968C131.094 9.512 131.195 10.1147 131.195 10.776ZM128.763 10.776C128.763 10.04 128.614 9.464 128.315 9.048C128.027 8.62133 127.611 8.408 127.067 8.408C126.523 8.408 126.102 8.62133 125.803 9.048C125.504 9.464 125.355 10.04 125.355 10.776C125.355 11.512 125.504 12.0987 125.803 12.536C126.102 12.9627 126.523 13.176 127.067 13.176C127.611 13.176 128.027 12.9627 128.315 12.536C128.614 12.0987 128.763 11.512 128.763 10.776ZM140.29 15H137.906V11.672H135.426V15H133.042V6.584H135.426V9.72H137.906V6.584H140.29V15ZM150.398 10.776C150.398 11.4373 150.302 12.0453 150.11 12.6C149.918 13.144 149.641 13.6133 149.278 14.008C148.916 14.392 148.478 14.6907 147.966 14.904C147.465 15.1173 146.9 15.224 146.27 15.224C145.652 15.224 145.086 15.1173 144.574 14.904C144.073 14.6907 143.641 14.392 143.278 14.008C142.916 13.6133 142.633 13.144 142.43 12.6C142.228 12.0453 142.126 11.4373 142.126 10.776C142.126 10.1147 142.228 9.512 142.43 8.968C142.644 8.424 142.932 7.96 143.294 7.576C143.668 7.192 144.105 6.89333 144.606 6.68C145.118 6.46667 145.673 6.36 146.27 6.36C146.878 6.36 147.433 6.46667 147.934 6.68C148.446 6.89333 148.884 7.192 149.246 7.576C149.609 7.96 149.892 8.424 150.094 8.968C150.297 9.512 150.398 10.1147 150.398 10.776ZM147.966 10.776C147.966 10.04 147.817 9.464 147.518 9.048C147.23 8.62133 146.814 8.408 146.27 8.408C145.726 8.408 145.305 8.62133 145.006 9.048C144.708 9.464 144.558 10.04 144.558 10.776C144.558 11.512 144.708 12.0987 145.006 12.536C145.305 12.9627 145.726 13.176 146.27 13.176C146.814 13.176 147.23 12.9627 147.518 12.536C147.817 12.0987 147.966 11.512 147.966 10.776ZM154.629 9.528C154.864 9.304 155.109 9.05867 155.365 8.792C155.632 8.52533 155.888 8.264 156.133 8.008C156.378 7.74133 156.613 7.48533 156.837 7.24C157.061 6.99467 157.258 6.776 157.429 6.584H160.325C160.112 6.808 159.845 7.08533 159.525 7.416C159.216 7.74667 158.885 8.09333 158.533 8.456C158.181 8.808 157.824 9.16 157.461 9.512C157.109 9.864 156.773 10.1787 156.453 10.456C156.773 10.7013 157.114 11.0053 157.477 11.368C157.84 11.7307 158.192 12.12 158.533 12.536C158.885 12.952 159.216 13.3733 159.525 13.8C159.845 14.2267 160.117 14.6267 160.341 15H157.621C157.429 14.712 157.21 14.4133 156.965 14.104C156.72 13.784 156.464 13.4747 156.197 13.176C155.93 12.8667 155.658 12.5787 155.381 12.312C155.114 12.0453 154.864 11.816 154.629 11.624V15H152.245V6.584H154.629V9.528Z" fill="#8EE901"/>
<g clip-path="url(#clip0_812_948)">
<path d="M15.8067 12.3892C15.3972 11.9628 14.9033 11.7349 14.3799 11.7349C13.8607 11.7349 13.3626 11.9586 12.9363 12.385L11.6024 13.7146C11.4927 13.6555 11.3829 13.6006 11.2774 13.5458C11.1254 13.4698 10.9819 13.398 10.8595 13.3221C9.61002 12.5285 8.47454 11.4943 7.38548 10.1562C6.85784 9.48926 6.50327 8.92785 6.24578 8.358C6.59191 8.04141 6.91272 7.71216 7.22508 7.39558C7.34327 7.27739 7.46146 7.15497 7.57966 7.03678C8.46609 6.15034 8.46609 5.00219 7.57966 4.11576L6.42729 2.96338C6.29643 2.83253 6.16135 2.69745 6.03472 2.56238C5.78145 2.30067 5.51552 2.03051 5.24115 1.77725C4.8317 1.37202 4.34204 1.15674 3.82706 1.15674C3.31209 1.15674 2.81399 1.37202 2.39188 1.77725C2.38766 1.78147 2.38766 1.78147 2.38344 1.78569L0.948249 3.23354C0.407943 3.77384 0.0998001 4.43234 0.0322619 5.19637C-0.0690454 6.42894 0.293972 7.57709 0.572568 8.32845C1.25639 10.1731 2.27791 11.8826 3.80174 13.7146C5.6506 15.9223 7.87514 17.6656 10.4163 18.894C11.3871 19.3541 12.683 19.8986 14.1309 19.9914C14.2195 19.9957 14.3124 19.9999 14.3968 19.9999C15.3719 19.9999 16.1908 19.6495 16.8324 18.9531C16.8366 18.9446 16.8451 18.9404 16.8493 18.9319C17.0688 18.666 17.322 18.4254 17.588 18.1679C17.7695 17.9949 17.9552 17.8133 18.1367 17.6234C18.5546 17.1886 18.7741 16.6821 18.7741 16.1629C18.7741 15.6395 18.5504 15.1371 18.1241 14.715L15.8067 12.3892ZM17.3178 16.834C17.3136 16.834 17.3136 16.8383 17.3178 16.834C17.1532 17.0113 16.9844 17.1717 16.8028 17.349C16.5285 17.6107 16.2499 17.8851 15.9882 18.1932C15.5618 18.6491 15.0595 18.8644 14.401 18.8644C14.3377 18.8644 14.2702 18.8644 14.2068 18.8602C12.9532 18.78 11.7881 18.2903 10.9144 17.8724C8.52519 16.7158 6.42729 15.0738 4.68396 12.9928C3.24455 11.2579 2.28213 9.65389 1.64474 7.93166C1.25217 6.8806 1.10865 6.0617 1.17197 5.28923C1.21418 4.79536 1.40413 4.38591 1.75449 4.03555L3.19389 2.59615C3.40073 2.40197 3.62023 2.29645 3.83551 2.29645C4.10144 2.29645 4.31672 2.45685 4.45179 2.59192C4.45601 2.59615 4.46024 2.60037 4.46446 2.60459C4.72195 2.84519 4.96677 3.09424 5.22426 3.36017C5.35512 3.49525 5.49019 3.63032 5.62527 3.76962L6.77764 4.92199C7.22508 5.36943 7.22508 5.7831 6.77764 6.23055C6.65523 6.35296 6.53703 6.47537 6.41462 6.59356C6.06005 6.95658 5.72236 7.29427 5.35512 7.62352C5.34667 7.63196 5.33823 7.63618 5.33401 7.64463C4.97099 8.00764 5.03853 8.36222 5.11451 8.60282C5.11873 8.61549 5.12295 8.62815 5.12718 8.64081C5.42688 9.36685 5.84899 10.0507 6.4906 10.8654L6.49482 10.8696C7.65986 12.3048 8.88821 13.4234 10.2432 14.2803C10.4163 14.39 10.5935 14.4786 10.7624 14.5631C10.9144 14.639 11.0579 14.7108 11.1803 14.7868C11.1972 14.7952 11.2141 14.8079 11.2309 14.8163C11.3745 14.8881 11.5095 14.9219 11.6488 14.9219C11.9992 14.9219 12.2187 14.7024 12.2904 14.6306L13.7341 13.187C13.8776 13.0435 14.1055 12.8704 14.3715 12.8704C14.6332 12.8704 14.8485 13.035 14.9793 13.1785C14.9835 13.1828 14.9835 13.1828 14.9878 13.187L17.3136 15.5128C17.7484 15.9434 17.7484 16.3866 17.3178 16.834Z" fill="#8EE901"/>
<path d="M10.8101 4.7574C11.9161 4.94313 12.9207 5.46656 13.7227 6.26857C14.5247 7.07059 15.0439 8.07522 15.2339 9.18116C15.2803 9.45975 15.5209 9.65392 15.7953 9.65392C15.8291 9.65392 15.8586 9.6497 15.8924 9.64548C16.2048 9.59483 16.4116 9.29935 16.3609 8.98698C16.133 7.64888 15.4998 6.42897 14.5332 5.46233C13.5665 4.49569 12.3466 3.86252 11.0085 3.63458C10.6962 3.58393 10.4049 3.79076 10.35 4.09891C10.2951 4.40705 10.4978 4.70675 10.8101 4.7574Z" fill="#8EE901"/>
<path d="M19.9771 8.82242C19.6014 6.61899 18.563 4.61395 16.9674 3.01836C15.3718 1.42277 13.3668 0.384369 11.1634 0.00868772C10.8552 -0.0461871 10.564 0.16487 10.5091 0.473013C10.4584 0.785377 10.6653 1.07664 10.9776 1.13151C12.9447 1.46498 14.7387 2.39785 16.1654 3.82037C17.5922 5.24712 18.5208 7.0411 18.8543 9.00815C18.9007 9.28675 19.1413 9.48092 19.4157 9.48092C19.4495 9.48092 19.479 9.4767 19.5128 9.47248C19.8209 9.42604 20.032 9.13056 19.9771 8.82242Z" fill="#8EE901"/>
</g>
<defs>
<clipPath id="clip0_812_948">
<rect width="20" height="20" fill="white"/>
</clipPath>
</defs>
</svg>
