<svg width="254" height="48" viewBox="0 0 254 48" fill="none" xmlns="http://www.w3.org/2000/svg">
<g clip-path="url(#clip0_944_1177)">
<path d="M139.156 17.1705C138.706 17.3774 138.304 17.8034 138.134 18.2538C138.049 18.4851 138 20.6517 138 24.6198V30.6328H140.8V26.8595H144.524L145.498 28.7461L146.46 30.6328H148.078C148.955 30.6328 149.685 30.5963 149.685 30.5598C149.685 30.5111 149.186 29.513 148.565 28.3445L147.458 26.2022L147.75 26.0196C149.393 24.9363 150.123 22.8062 149.685 20.3717C149.405 18.8867 148.687 17.8399 147.579 17.3531C146.959 17.0731 146.849 17.0609 143.234 17.0366C140.313 17.0122 139.448 17.0366 139.156 17.1705ZM146.216 19.9214C146.411 19.9944 146.606 20.2135 146.715 20.4935C146.946 21.0412 146.971 22.441 146.764 22.8548C146.241 23.8651 145.595 24.0599 142.844 24.0599H140.8V19.7997H143.344C144.743 19.7997 146.034 19.8483 146.216 19.9214ZM153.824 17.1096C152.619 17.4748 151.754 18.339 151.389 19.5197C151.097 20.4691 150.781 22.7088 150.781 23.7921C150.781 24.8389 151.073 26.969 151.328 27.8332C151.779 29.3304 152.546 30.0972 153.958 30.4624C154.566 30.6206 155.211 30.645 157.281 30.6085C159.654 30.572 159.898 30.5354 160.494 30.2798C162.21 29.513 162.953 27.5654 162.953 23.8164C162.941 19.8727 162.174 17.9252 160.36 17.2557C159.715 17.0244 159.435 17.0001 156.891 17.0122C155.37 17.0122 153.994 17.0609 153.824 17.1096ZM159.484 20.0796C160.299 21.1994 160.287 26.7134 159.459 27.5289C159.216 27.7845 154.53 27.7967 154.323 27.5533C153.751 26.8595 153.544 22.8548 153.982 20.9803C154.165 20.2378 154.262 20.0066 154.469 19.9214C154.615 19.8605 155.771 19.824 157.025 19.8362C159.082 19.8605 159.338 19.8849 159.484 20.0796ZM165.582 17.2679C165.314 17.4261 164.986 17.7426 164.852 17.9738C164.608 18.3877 164.596 18.6068 164.559 23.4756C164.535 26.8716 164.572 28.7096 164.657 29.0504C164.864 29.8051 165.399 30.3529 166.13 30.4989C166.884 30.6693 172.252 30.6693 173.214 30.5111C175.088 30.2068 176.05 29.1113 176.184 27.1029C176.269 25.9709 176.086 25.131 175.612 24.3764L175.259 23.8286L175.709 22.9522C176.147 22.1124 176.159 22.0271 176.159 20.8465C176.159 19.8362 176.099 19.5075 175.88 19.0085C175.527 18.2416 175.101 17.7913 174.334 17.3896L173.725 17.0609L169.891 17.0244C166.093 17.0001 166.057 17.0001 165.582 17.2679ZM173.116 19.9457C173.287 20.1161 173.396 20.9317 173.287 21.309C173.226 21.5281 173.031 21.8324 172.861 22.0028C172.557 22.2949 172.508 22.2949 170 22.3314L167.456 22.368V19.7875L170.244 19.824C171.778 19.8483 173.068 19.897 173.116 19.9457ZM172.581 25.3745C173.068 25.5692 173.336 26.0926 173.323 26.7864C173.311 27.2246 173.25 27.4437 173.104 27.5533C172.946 27.675 172.179 27.7115 170.171 27.7115H167.456V25.131L169.867 25.1797C171.181 25.2162 172.41 25.3014 172.581 25.3745ZM180.261 17.2557C179.081 17.7182 178.484 18.5459 178.022 20.3717C177.791 21.2968 177.754 21.7837 177.754 23.8164C177.754 26.0318 177.778 26.2752 178.083 27.4072C178.46 28.7827 178.813 29.3791 179.519 29.9025C180.395 30.5233 180.663 30.572 183.767 30.572C186.871 30.572 187.139 30.5233 188.015 29.9025C188.721 29.3791 189.074 28.7827 189.451 27.4072C189.756 26.2752 189.78 26.0318 189.78 23.8164C189.78 21.7837 189.744 21.2968 189.512 20.3717C189.05 18.5216 188.453 17.7061 187.236 17.2557C186.615 17.0244 186.311 17.0001 183.731 17.0122C181.187 17.0122 180.846 17.0366 180.261 17.2557ZM186.128 19.9214C186.457 20.0431 186.603 20.4204 186.834 21.7959C187.127 23.4878 186.871 26.6769 186.384 27.4194C186.201 27.7115 186.189 27.7115 183.767 27.7115C180.919 27.7115 181.089 27.7967 180.773 26.1778C180.322 23.9382 180.688 20.2013 181.369 19.9214C181.734 19.7753 185.739 19.7753 186.128 19.9214Z" fill="#276EB8"/>
<path d="M192.057 17.3773L191.68 17.7546V29.805L192.033 30.158C192.349 30.4623 192.483 30.511 193.104 30.511C193.7 30.511 193.871 30.4623 194.09 30.231C194.516 29.7806 194.601 29.2572 194.601 27.1393V25.1553H196.39L197.291 25.9343C199.092 27.4801 199.713 28.3078 199.713 29.1355C199.713 29.5981 199.774 29.7441 200.127 30.0971C200.492 30.4623 200.614 30.511 201.162 30.511C201.673 30.511 201.843 30.4501 202.172 30.158C202.562 29.8172 202.574 29.7685 202.562 28.8799C202.549 28.1131 202.489 27.8331 202.172 27.188C201.746 26.3359 200.504 24.8144 199.725 24.1937L199.214 23.792L200.005 23.0738C200.955 22.1974 201.831 21.0654 202.245 20.1769C202.476 19.6656 202.549 19.3005 202.562 18.6188C202.574 17.7425 202.562 17.6938 202.172 17.3529C201.819 17.0365 201.685 17 201.004 17C200.298 17 200.188 17.0365 199.969 17.3164C199.798 17.5355 199.713 17.8155 199.713 18.1806C199.713 18.4728 199.64 18.8866 199.543 19.1057C199.336 19.617 198.411 20.6272 197.291 21.5888L196.39 22.3557H194.601V20.3716C194.601 19.2883 194.54 18.1928 194.479 17.9494C194.297 17.2921 193.858 17 193.067 17C192.52 17 192.373 17.0486 192.057 17.3773ZM207.552 17.1704C205.909 17.6938 205.008 18.8623 204.375 21.248C204.083 22.3192 204.059 22.6843 204.01 25.776C203.937 29.4277 203.986 29.8293 204.546 30.2675C204.947 30.584 205.982 30.5962 206.359 30.2919C206.797 29.9389 206.895 29.5981 206.895 28.3322V27.1028L213.224 27.1028V28.4539C213.224 29.7806 213.224 29.805 213.577 30.158C213.894 30.4623 214.028 30.511 214.624 30.511C215.245 30.511 215.354 30.4745 215.683 30.1215L216.036 29.732L216 25.8369C215.951 22.234 215.926 21.8566 215.683 21.0411C215.099 19.1179 214.247 17.9129 213.103 17.3773C212.47 17.0852 212.299 17.0608 210.242 17.0365C208.684 17.0121 207.905 17.0486 207.552 17.1704ZM211.751 19.9334C212.421 20.1647 212.993 21.6375 213.151 23.4755L213.212 24.3032L206.858 24.3032L206.943 23.3294C207.09 21.6132 207.759 20.0065 208.38 19.8847C208.976 19.7752 211.386 19.8117 211.751 19.9334ZM219.858 17.1704C218.665 17.5477 217.996 18.132 217.582 19.1909C217.375 19.7265 217.314 20.116 217.314 21.0776C217.314 23.0251 217.898 24.1328 219.274 24.8023C219.822 25.07 220.041 25.0944 222.439 25.1553C224.922 25.2161 225.031 25.2283 225.299 25.4961C225.652 25.8491 225.689 26.8837 225.36 27.3827L225.153 27.7114H221.879C218.787 27.7114 218.592 27.7236 218.3 27.9548C217.618 28.4904 217.594 29.6589 218.239 30.2067L218.604 30.511H222.146C224.118 30.511 225.895 30.4501 226.139 30.3893C226.808 30.2067 227.526 29.5007 227.977 28.5878C228.354 27.8209 228.379 27.7114 228.379 26.4333C228.379 25.2405 228.342 25.0214 228.062 24.4249C227.66 23.5729 227.113 22.9399 226.516 22.6478C226.127 22.453 225.676 22.4044 223.291 22.3557C220.065 22.2826 220.162 22.3313 220.162 21.0776C220.162 19.8117 219.98 19.8726 223.863 19.7995L227.222 19.7387L227.551 19.41C227.843 19.1179 227.879 18.9718 227.928 18.0468L227.989 17L224.167 17.0121C221.44 17.0121 220.211 17.0608 219.858 17.1704ZM231.908 17.1704C231.641 17.2556 231.263 17.4138 231.056 17.5112C229.486 18.3389 228.829 21.1141 229.73 23.086C230.107 23.9137 230.521 24.3519 231.3 24.7657C231.884 25.0822 231.981 25.0944 234.343 25.1309C235.682 25.1431 236.923 25.2283 237.106 25.2891C237.532 25.4596 237.739 26.0803 237.629 26.8107C237.495 27.7357 237.593 27.7114 233.905 27.7114L230.606 27.7114L230.253 28.0644C229.949 28.3809 229.9 28.5147 229.9 29.1112C229.9 29.7076 229.949 29.8415 230.253 30.158L230.606 30.511H234.282C238.372 30.511 238.469 30.4988 239.321 29.6833C240.064 28.9651 240.405 28.1131 240.465 26.7133C240.538 25.0944 240.234 24.145 239.333 23.2564C238.932 22.8547 238.53 22.5748 238.226 22.4896C237.958 22.4165 236.741 22.3557 235.487 22.3557C234.233 22.3557 233.053 22.3192 232.846 22.2826C232.407 22.1974 232.213 21.8201 232.213 21.0776C232.213 20.3351 232.407 19.9578 232.846 19.8726C233.053 19.8361 234.525 19.7995 236.132 19.7995C239.918 19.7995 240.003 19.7508 240.003 17.9129V17L236.205 17.0121C233.491 17.0121 232.249 17.0608 231.908 17.1704ZM245.249 17.2434C244.896 17.3651 244.409 17.6207 244.178 17.8033C243.204 18.5458 242.328 20.4933 242.084 22.4774C241.902 23.865 241.914 29.2694 242.084 29.7685C242.255 30.2432 242.742 30.511 243.46 30.511C243.898 30.511 244.093 30.4379 244.409 30.158L244.811 29.805L244.847 28.4539L244.896 27.1028H251.055L251.104 28.4539L251.14 29.805L251.542 30.158C251.858 30.4501 252.041 30.511 252.54 30.511C253.039 30.511 253.222 30.4501 253.538 30.158L253.94 29.805L253.928 25.983C253.916 22.4896 253.903 22.1001 253.66 21.2237C253.112 19.2153 252.297 17.9981 251.116 17.4138C250.422 17.073 250.361 17.0608 248.158 17.0365C246.174 17 245.833 17.0243 245.249 17.2434ZM250.118 20.2864C250.605 20.8585 250.97 22.0757 251.043 23.2929L251.116 24.3032H244.872V23.5607C244.872 22.0149 245.553 20.2134 246.235 19.9213C246.393 19.8604 247.245 19.8239 248.146 19.8361L249.765 19.8604L250.118 20.2864Z" fill="#D61E2F"/>
</g>
<g clip-path="url(#clip1_944_1177)">
<path d="M117.001 24.0001C117.001 31.9239 110.601 38.4001 102.601 38.4001C94.6774 38.4001 88.2012 31.9239 88.2012 24.0001C88.2012 16.0763 94.6012 9.6001 102.525 9.6001C110.601 9.6001 117.001 16.0763 117.001 24.0001Z" fill="#FFB600"/>
<path d="M102.601 9.6001C110.525 9.6001 117.001 16.0763 117.001 24.0001C117.001 31.9239 110.601 38.4001 102.601 38.4001C94.6774 38.4001 88.2012 31.9239 88.2012 24.0001" fill="#F7981D"/>
<path d="M102.6 9.6001C110.523 9.6001 117 16.0763 117 24.0001C117 31.9239 110.6 38.4001 102.6 38.4001" fill="#FF8500"/>
<path d="M83.2476 9.6001C75.4 9.67629 69 16.0763 69 24.0001C69 31.9239 75.4 38.4001 83.4 38.4001C87.1333 38.4001 90.4857 36.9525 93.0762 34.6668C93.6095 34.2096 94.0667 33.6763 94.5238 33.143H91.5524C91.1714 32.6858 90.7905 32.1525 90.4857 31.6953H95.5905C95.8952 31.2382 96.2 30.7049 96.4286 30.1715H89.6476C89.419 29.7144 89.1905 29.181 89.0381 28.6477H96.9619C97.419 27.2001 97.7238 25.6763 97.7238 24.0763C97.7238 23.0096 97.5714 22.0191 97.419 21.0287H88.581C88.6571 20.4953 88.8095 20.0382 88.9619 19.5049H96.8857C96.7333 18.9715 96.5048 18.4382 96.2762 17.981H89.5714C89.8 17.4477 90.1048 16.9906 90.4095 16.4572H95.5143C95.2095 15.9239 94.8286 15.3906 94.3714 14.9334H91.5524C92.0095 14.4001 92.4667 13.943 93 13.4858C90.4857 11.1239 87.0571 9.75248 83.3238 9.75248C83.3238 9.6001 83.3238 9.6001 83.2476 9.6001Z" fill="#FF5050"/>
<path d="M69 24.0001C69 31.9239 75.4 38.4001 83.4 38.4001C87.1333 38.4001 90.4857 36.9524 93.0762 34.6667C93.6095 34.2096 94.0667 33.6762 94.5238 33.1429H91.5524C91.1714 32.6858 90.7905 32.1524 90.4857 31.6953H95.5905C95.8952 31.2381 96.2 30.7048 96.4286 30.1715H89.6476C89.419 29.7143 89.1905 29.181 89.0381 28.6477H96.9619C97.419 27.2001 97.7238 25.6762 97.7238 24.0762C97.7238 23.0096 97.5714 22.0191 97.419 21.0286H88.581C88.6571 20.4953 88.8095 20.0382 88.9619 19.5048H96.8857C96.7333 18.9715 96.5048 18.4382 96.2762 17.981H89.5714C89.8 17.4477 90.1048 16.9905 90.4095 16.4572H95.5143C95.2095 15.9239 94.8286 15.3905 94.3714 14.9334H91.5524C92.0095 14.4001 92.4667 13.9429 93 13.4858C90.4857 11.1239 87.0571 9.75244 83.3238 9.75244H83.2476" fill="#E52836"/>
<path d="M83.3985 38.4001C87.1318 38.4001 90.4842 36.9524 93.0747 34.6667C93.608 34.2096 94.0651 33.6762 94.5223 33.1429H91.5509C91.1699 32.6858 90.789 32.1524 90.4842 31.6953H95.589C95.8937 31.2381 96.1985 30.7048 96.427 30.1715H89.6461C89.4175 29.7143 89.189 29.181 89.0366 28.6477H96.9604C97.4175 27.2001 97.7223 25.6762 97.7223 24.0762C97.7223 23.0096 97.5699 22.0191 97.4175 21.0286H88.5794C88.6556 20.4953 88.808 20.0382 88.9604 19.5048H96.8842C96.7318 18.9715 96.5032 18.4382 96.2747 17.981H89.5699C89.7985 17.4477 90.1032 16.9905 90.408 16.4572H95.5128C95.208 15.9239 94.827 15.3905 94.3699 14.9334H91.5509C92.008 14.4001 92.4651 13.9429 92.9985 13.4858C90.4842 11.1239 87.0556 9.75244 83.3223 9.75244H83.2461" fill="#CB2026"/>
<path d="M88.5064 27.6569L88.735 26.3617C88.6588 26.3617 88.5064 26.4379 88.354 26.4379C87.8207 26.4379 87.7445 26.1331 87.8207 25.9807L88.2778 23.3141H89.1159L89.3445 21.8664H88.5826L88.735 20.9521H87.2112C87.2112 20.9521 86.2969 25.9807 86.2969 26.5902C86.2969 27.5045 86.8302 27.8855 87.5159 27.8855C87.9731 27.8855 88.354 27.7331 88.5064 27.6569Z" fill="white"/>
<path d="M89.0391 25.219C89.0391 27.3523 90.4867 27.8856 91.7057 27.8856C92.8486 27.8856 93.3057 27.6571 93.3057 27.6571L93.6105 26.2094C93.6105 26.2094 92.7724 26.5904 92.0105 26.5904C90.3343 26.5904 90.6391 25.3714 90.6391 25.3714H93.7629C93.7629 25.3714 93.9914 24.3809 93.9914 23.9999C93.9914 23.0094 93.4581 21.7904 91.7819 21.7904C90.1819 21.638 89.0391 23.3142 89.0391 25.219ZM91.7057 23.0095C92.5438 23.0095 92.3914 23.9999 92.3914 24.0761H90.7153C90.7153 23.9999 90.8676 23.0095 91.7057 23.0095Z" fill="white"/>
<path d="M101.382 27.6571L101.687 25.9809C101.687 25.9809 100.925 26.3618 100.391 26.3618C99.3247 26.3618 98.8676 25.5237 98.8676 24.6095C98.8676 22.7809 99.7819 21.7904 100.849 21.7904C101.61 21.7904 102.22 22.2476 102.22 22.2476L102.449 20.6476C102.449 20.6476 101.534 20.2666 100.696 20.2666C98.9438 20.2666 97.1914 21.7904 97.1914 24.6856C97.1914 26.5904 98.1057 27.8856 99.9343 27.8856C100.544 27.8856 101.382 27.6571 101.382 27.6571Z" fill="white"/>
<path d="M80.1257 21.6382C79.059 21.6382 78.2971 21.9429 78.2971 21.9429L78.0686 23.2382C78.0686 23.2382 78.7543 22.9334 79.7448 22.9334C80.2781 22.9334 80.7352 23.0096 80.7352 23.4668C80.7352 23.7715 80.659 23.8477 80.659 23.8477C80.659 23.8477 80.2019 23.8477 79.9733 23.8477C78.6781 23.8477 77.2305 24.381 77.2305 26.1334C77.2305 27.5049 78.1448 27.8096 78.6781 27.8096C79.7448 27.8096 80.2019 27.1239 80.2781 27.1239L80.2019 27.7334H81.5733L82.1828 23.5429C82.1828 21.7144 80.659 21.6382 80.1257 21.6382ZM80.4305 25.0668C80.4305 25.2953 80.2781 26.5144 79.3638 26.5144C78.9067 26.5144 78.7543 26.1334 78.7543 25.9049C78.7543 25.5239 78.9829 24.9906 80.1257 24.9906C80.3543 25.0668 80.4305 25.0668 80.4305 25.0668Z" fill="white"/>
<path d="M83.6293 27.8096C84.0103 27.8096 85.915 27.8858 85.915 25.8287C85.915 23.9239 84.0865 24.3049 84.0865 23.543C84.0865 23.162 84.3912 23.0096 84.9246 23.0096C85.1531 23.0096 85.9912 23.0858 85.9912 23.0858L86.2198 21.7144C86.2198 21.7144 85.6865 21.562 84.7722 21.562C83.6293 21.562 82.4865 22.0192 82.4865 23.543C82.4865 25.2953 84.3912 25.143 84.3912 25.8287C84.3912 26.2858 83.8579 26.362 83.477 26.362C82.7912 26.362 82.1055 26.1334 82.1055 26.1334L81.877 27.5049C81.9531 27.6572 82.3341 27.8096 83.6293 27.8096Z" fill="white"/>
<path d="M114.03 20.4189L113.726 22.4761C113.726 22.4761 113.116 21.7142 112.278 21.7142C110.907 21.7142 109.688 23.3904 109.688 25.3713C109.688 26.5904 110.297 27.8856 111.592 27.8856C112.507 27.8856 113.04 27.2761 113.04 27.2761L112.964 27.8094H114.487L115.63 20.4951L114.03 20.4189ZM113.345 24.457C113.345 25.2951 112.964 26.3618 112.126 26.3618C111.592 26.3618 111.287 25.9047 111.287 25.1428C111.287 23.9237 111.821 23.1618 112.507 23.1618C113.04 23.1618 113.345 23.5428 113.345 24.457Z" fill="white"/>
<path d="M71.8207 27.7332L72.735 22.2475L72.8873 27.7332H73.954L75.935 22.2475L75.0969 27.7332H76.6969L77.9159 20.4189H75.4016L73.8778 24.9142L73.8016 20.4189H71.5921L70.373 27.7332H71.8207Z" fill="white"/>
<path d="M95.4379 27.7334C95.8951 25.2191 95.9712 23.162 97.0379 23.5429C97.1903 22.5524 97.4189 22.1715 97.5712 21.7905C97.5712 21.7905 97.495 21.7905 97.2665 21.7905C96.5808 21.7905 96.0474 22.7048 96.0474 22.7048L96.1998 21.8667H94.7522L93.7617 27.8096H95.4379V27.7334Z" fill="white"/>
<path d="M104.887 21.6382C103.821 21.6382 103.059 21.9429 103.059 21.9429L102.83 23.2382C102.83 23.2382 103.516 22.9334 104.506 22.9334C105.04 22.9334 105.497 23.0096 105.497 23.4668C105.497 23.7715 105.421 23.8477 105.421 23.8477C105.421 23.8477 104.964 23.8477 104.735 23.8477C103.44 23.8477 101.992 24.381 101.992 26.1334C101.992 27.5049 102.906 27.8096 103.44 27.8096C104.506 27.8096 104.964 27.1239 105.04 27.1239L104.964 27.7334H106.335L106.945 23.5429C107.021 21.7144 105.421 21.6382 104.887 21.6382ZM105.268 25.0668C105.268 25.2953 105.116 26.5144 104.202 26.5144C103.745 26.5144 103.592 26.1334 103.592 25.9049C103.592 25.5239 103.821 24.9906 104.964 24.9906C105.192 25.0668 105.192 25.0668 105.268 25.0668Z" fill="white"/>
<path d="M108.239 27.7334C108.696 25.2191 108.772 23.162 109.839 23.5429C109.991 22.5524 110.22 22.1715 110.372 21.7905C110.372 21.7905 110.296 21.7905 110.067 21.7905C109.382 21.7905 108.848 22.7048 108.848 22.7048L109.001 21.8667H107.553L106.562 27.8096H108.239V27.7334Z" fill="white"/>
<path d="M86.1445 26.5902C86.1445 27.5045 86.6779 27.8855 87.3636 27.8855C87.8969 27.8855 88.3541 27.7331 88.5064 27.6569L88.735 26.3617C88.6588 26.3617 88.5064 26.4379 88.3541 26.4379C87.8207 26.4379 87.7445 26.1331 87.8207 25.9807L88.2779 23.3141H89.116L89.3445 21.8664H88.5826L88.735 20.9521" fill="#DCE5E5"/>
<path d="M89.8027 25.219C89.8027 27.3523 90.4884 27.8856 91.7075 27.8856C92.8504 27.8856 93.3075 27.6571 93.3075 27.6571L93.6123 26.2094C93.6123 26.2094 92.7742 26.5904 92.0123 26.5904C90.3361 26.5904 90.6408 25.3714 90.6408 25.3714H93.7646C93.7646 25.3714 93.9932 24.3809 93.9932 23.9999C93.9932 23.0094 93.4599 21.7904 91.7837 21.7904C90.1837 21.638 89.8027 23.3142 89.8027 25.219ZM91.7075 23.0095C92.5456 23.0095 92.698 23.9999 92.698 24.0761H90.717C90.717 23.9999 90.8694 23.0095 91.7075 23.0095Z" fill="#DCE5E5"/>
<path d="M101.382 27.6571L101.686 25.9809C101.686 25.9809 100.925 26.3618 100.391 26.3618C99.3246 26.3618 98.8674 25.5237 98.8674 24.6095C98.8674 22.7809 99.7817 21.7904 100.848 21.7904C101.61 21.7904 102.22 22.2476 102.22 22.2476L102.448 20.6476C102.448 20.6476 101.534 20.2666 100.696 20.2666C98.9436 20.2666 97.9531 21.7904 97.9531 24.6856C97.9531 26.5904 98.1055 27.8856 99.9341 27.8856C100.544 27.8856 101.382 27.6571 101.382 27.6571Z" fill="#DCE5E5"/>
<path d="M78.0686 23.3143C78.0686 23.3143 78.7543 23.0096 79.7448 23.0096C80.2781 23.0096 80.7352 23.0858 80.7352 23.5429C80.7352 23.8477 80.659 23.9239 80.659 23.9239C80.659 23.9239 80.2019 23.9239 79.9733 23.9239C78.6781 23.9239 77.2305 24.4572 77.2305 26.2096C77.2305 27.581 78.1448 27.8858 78.6781 27.8858C79.7448 27.8858 80.2019 27.2001 80.2781 27.2001L80.2019 27.8096H81.5733L82.1828 23.6191C82.1828 21.8667 80.659 21.7905 80.0495 21.7905L78.0686 23.3143ZM81.1924 25.0667C81.1924 25.2953 80.2781 26.5143 79.3638 26.5143C78.9067 26.5143 78.7543 26.1334 78.7543 25.9048C78.7543 25.5239 78.9829 24.9905 80.1257 24.9905C80.3543 25.0667 81.1924 25.0667 81.1924 25.0667Z" fill="#DCE5E5"/>
<path d="M81.9531 27.6572C81.9531 27.6572 82.4103 27.8096 83.7055 27.8096C84.0865 27.8096 85.9912 27.8858 85.9912 25.8287C85.9912 23.9239 84.1626 24.3049 84.1626 23.543C84.1626 23.162 84.4674 23.0096 85.0007 23.0096C85.2293 23.0096 86.0674 23.0858 86.0674 23.0858L86.296 21.7144C86.296 21.7144 85.7626 21.562 84.8484 21.562C83.7055 21.562 83.3246 22.0192 83.3246 23.543C83.3246 25.2953 84.4674 25.143 84.4674 25.8287C84.4674 26.2858 83.9341 26.362 83.5531 26.362" fill="#DCE5E5"/>
<path d="M113.725 22.4761C113.725 22.4761 113.116 21.7142 112.277 21.7142C110.906 21.7142 110.449 23.3904 110.449 25.3713C110.449 26.5903 110.297 27.8856 111.592 27.8856C112.506 27.8856 113.039 27.2761 113.039 27.2761L112.963 27.8094H114.487L115.63 20.4951L113.725 22.4761ZM113.649 24.457C113.649 25.2951 112.963 26.3618 112.125 26.3618C111.592 26.3618 111.287 25.9046 111.287 25.1427C111.287 23.9237 111.82 23.1618 112.506 23.1618C113.039 23.1618 113.649 23.5427 113.649 24.457Z" fill="#DCE5E5"/>
<path d="M71.8207 27.7332L72.735 22.2475L72.8873 27.7332H73.954L75.935 22.2475L75.0969 27.7332H76.6969L77.9159 20.4189H76.0111L73.8778 24.9142L73.8016 20.4189H72.9635L70.373 27.7332H71.8207Z" fill="#DCE5E5"/>
<path d="M93.8398 27.7334H95.4398C95.897 25.2191 95.9732 23.162 97.0398 23.5429C97.1922 22.5524 97.4208 22.1715 97.5732 21.7905C97.5732 21.7905 97.497 21.7905 97.2684 21.7905C96.5827 21.7905 96.0494 22.7048 96.0494 22.7048L96.2017 21.8667" fill="#DCE5E5"/>
<path d="M102.83 23.3143C102.83 23.3143 103.516 23.0096 104.506 23.0096C105.04 23.0096 105.497 23.0858 105.497 23.5429C105.497 23.8477 105.421 23.9239 105.421 23.9239C105.421 23.9239 104.964 23.9239 104.735 23.9239C103.44 23.9239 101.992 24.4572 101.992 26.2096C101.992 27.581 102.906 27.8858 103.44 27.8858C104.506 27.8858 104.964 27.2001 105.04 27.2001L104.964 27.8096H106.335L106.945 23.6191C106.945 21.8667 105.421 21.7905 104.811 21.7905L102.83 23.3143ZM105.954 25.0667C105.954 25.2953 105.04 26.5143 104.126 26.5143C103.668 26.5143 103.516 26.1334 103.516 25.9048C103.516 25.5239 103.745 24.9905 104.887 24.9905C105.192 25.0667 105.954 25.0667 105.954 25.0667Z" fill="#DCE5E5"/>
<path d="M106.641 27.7334H108.241C108.698 25.2191 108.774 23.162 109.841 23.5429C109.993 22.5524 110.222 22.1715 110.374 21.7905C110.374 21.7905 110.298 21.7905 110.069 21.7905C109.383 21.7905 108.85 22.7048 108.85 22.7048L109.003 21.8667" fill="#DCE5E5"/>
</g>
<g clip-path="url(#clip2_944_1177)">
<path d="M17.5996 30.8954L20.0377 17.1812H23.8472L21.4853 30.8954H17.5996Z" fill="#3C58BF"/>
<path d="M17.5996 30.8954L20.7234 17.1812H23.8472L21.4853 30.8954H17.5996Z" fill="#293688"/>
<path d="M35.2763 17.3332C34.5144 17.0284 33.2953 16.7236 31.7715 16.7236C27.962 16.7236 25.2191 18.6284 25.2191 21.3713C25.2191 23.4284 27.1239 24.4951 28.6477 25.1808C30.1715 25.8665 30.6287 26.3236 30.6287 26.9332C30.6287 27.8474 29.4096 28.3046 28.343 28.3046C26.8191 28.3046 25.981 28.076 24.6858 27.5427L24.1525 27.3141L23.6191 30.4379C24.5334 30.8189 26.2096 31.1998 27.962 31.1998C32.0001 31.1998 34.6668 29.2951 34.6668 26.3998C34.6668 24.7998 33.6763 23.5808 31.3906 22.5903C30.0191 21.9046 29.181 21.5236 29.181 20.8379C29.181 20.2284 29.8668 19.6189 31.3906 19.6189C32.6858 19.6189 33.6001 19.8474 34.2858 20.1522L34.6668 20.3046L35.2763 17.3332Z" fill="#3C58BF"/>
<path d="M35.2763 17.3332C34.5144 17.0284 33.2953 16.7236 31.7715 16.7236C27.962 16.7236 25.9049 18.6284 25.9049 21.3713C25.9049 23.4284 27.1239 24.4951 28.6477 25.1808C30.1715 25.8665 30.6287 26.3236 30.6287 26.9332C30.6287 27.8474 29.4096 28.3046 28.343 28.3046C26.8191 28.3046 25.981 28.076 24.6858 27.5427L24.1525 27.3141L23.6191 30.4379C24.5334 30.8189 26.2096 31.1998 27.962 31.1998C32.0001 31.1998 34.6668 29.2951 34.6668 26.3998C34.6668 24.7998 33.6763 23.5808 31.3906 22.5903C30.0191 21.9046 29.181 21.5236 29.181 20.8379C29.181 20.2284 29.8668 19.6189 31.3906 19.6189C32.6858 19.6189 33.6001 19.8474 34.2858 20.1522L34.6668 20.3046L35.2763 17.3332Z" fill="#293688"/>
<path d="M41.83 17.1812C40.9157 17.1812 40.23 17.2573 39.8491 18.1716L34.1348 30.8954H38.2491L39.011 28.6097H43.8871L44.3443 30.8954H48.0014L44.8014 17.1812H41.83ZM40.0776 26.324C40.3062 25.6383 41.6014 22.2859 41.6014 22.2859C41.6014 22.2859 41.9062 21.4478 42.1348 20.9145L42.3633 22.2097C42.3633 22.2097 43.1252 25.6383 43.2776 26.4002H40.0776V26.324Z" fill="#3C58BF"/>
<path d="M42.7443 17.1812C41.83 17.1812 41.1443 17.2573 40.7633 18.1716L34.1348 30.8954H38.2491L39.011 28.6097H43.8871L44.3443 30.8954H48.0014L44.8014 17.1812H42.7443ZM40.0776 26.324C40.3824 25.5621 41.6014 22.2859 41.6014 22.2859C41.6014 22.2859 41.9062 21.4478 42.1348 20.9145L42.3633 22.2097C42.3633 22.2097 43.1252 25.6383 43.2776 26.4002H40.0776V26.324Z" fill="#293688"/>
<path d="M10.5912 26.7811L10.2103 24.8002C9.52457 22.5145 7.31505 20.0002 4.87695 18.7811L8.30552 30.9716H12.4198L18.5912 17.2573H14.477L10.5912 26.7811Z" fill="#3C58BF"/>
<path d="M10.5912 26.7811L10.2103 24.8002C9.52457 22.5145 7.31505 20.0002 4.87695 18.7811L8.30552 30.9716H12.4198L18.5912 17.2573H15.2389L10.5912 26.7811Z" fill="#293688"/>
<path d="M0 17.1812L0.685714 17.3335C5.5619 18.4764 8.91428 21.3716 10.2095 24.8002L8.83809 18.324C8.60952 17.4097 7.92381 17.1812 7.08571 17.1812H0Z" fill="#FFBC00"/>
<path d="M0 17.1812C4.87619 18.324 8.91428 21.2954 10.2095 24.724L8.91428 19.3145C8.68571 18.4002 7.92381 17.8669 7.08571 17.8669L0 17.1812Z" fill="#F7981D"/>
<path d="M0 17.1812C4.87619 18.324 8.91428 21.2954 10.2095 24.724L9.29524 21.7526C9.06667 20.8383 8.7619 19.924 7.69524 19.5431L0 17.1812Z" fill="#ED7C00"/>
<path d="M14.3988 26.3236L11.8083 23.7332L10.5893 26.6284L10.2845 24.7236C9.59879 22.4379 7.38927 19.9236 4.95117 18.7046L8.37974 30.8951H12.494L14.3988 26.3236Z" fill="#051244"/>
<path d="M21.4853 30.8949L18.2091 27.5425L17.5996 30.8949H21.4853Z" fill="#051244"/>
<path d="M30.2458 26.1714C30.5505 26.4761 30.7029 26.7047 30.6267 27.0095C30.6267 27.9238 29.4077 28.3809 28.341 28.3809C26.8172 28.3809 25.9791 28.1523 24.6839 27.619L24.1505 27.3904L23.6172 30.5142C24.5315 30.8952 26.2077 31.2761 27.96 31.2761C30.3981 31.2761 32.3791 30.5904 33.5219 29.3714L30.2458 26.1714Z" fill="#051244"/>
<path d="M34.666 30.895H38.247L39.0089 28.6093H43.8851L44.3422 30.895H47.9994L46.7041 25.3331L42.1327 20.9141L42.3613 22.1331C42.3613 22.1331 43.1232 25.5617 43.2755 26.3236H40.0755C40.3803 25.5617 41.5993 22.2855 41.5993 22.2855C41.5993 22.2855 41.9041 21.4474 42.1327 20.9141" fill="#051244"/>
</g>
<defs>
<clipPath id="clip0_944_1177">
<rect width="116" height="13.6327" fill="white" transform="translate(138 17)"/>
</clipPath>
<clipPath id="clip1_944_1177">
<rect width="48" height="48" fill="white" transform="translate(69)"/>
</clipPath>
<clipPath id="clip2_944_1177">
<rect width="48" height="48" fill="white"/>
</clipPath>
</defs>
</svg>
